<svg xmlns="http://www.w3.org/2000/svg" width="512" height="512"><defs><linearGradient id="a"><stop offset="0" stop-color="#005400"/><stop offset="1" stop-color="#005400" stop-opacity="0"/></linearGradient><linearGradient id="b"><stop offset="0" stop-color="#fff"/><stop offset="1" stop-color="#fff" stop-opacity="0"/></linearGradient><linearGradient id="c"><stop offset="0" stop-color="#005400"/><stop offset="1" stop-color="#005400" stop-opacity="0"/></linearGradient><linearGradient id="d"><stop offset="0" stop-color="#fff"/><stop offset="1" stop-color="#fff" stop-opacity="0"/></linearGradient></defs><path d="M420.35 256a164.35 164.35 0 1 1-328.7 0 164.35 164.35 0 1 1 328.7 0z" fill="#fff"/><g transform="matrix(12.7 0 0 12.7 2.16 2.16)" fill="#fff" fill-opacity=".778"><circle r="19" cy="20" cx="20" stroke="#d00"/><circle r="18" cy="20" cx="20" stroke="#fe6230"/><circle r="17" cy="20" cx="20" stroke="#fef600"/><circle r="16" cy="20" cx="20" stroke="#00bc00"/><circle r="15" cy="20" cx="20" stroke="#009bfe"/><circle r="14" cy="20" cx="20" stroke="#000083"/><circle r="13" cy="20" cx="20" stroke="#30009b"/></g><g color="#000" stroke="#000"><path d="M327.352 98.086c-21.187 5.574-33.7 42.057-40.818 75.722-5.954.733-11.933 1.812-17.905 3.25-8.906 2.143-17.448 5.006-25.59 8.5-23.084-26.714-53.32-54.542-75.3-48.587-.972.265-1.924.612-2.863 1.01-41.194 17.5-16.248 124.53-10.623 146.58-8.082 26.24-9.438 54.917-2.548 83.546 20.47 85.047 86.648 62.62 171.695 42.15 85.05-20.47 156.747-31.228 136.278-116.276-8.058-33.478-26.197-61.88-50.42-82.778-9.677-32.887-38.83-118.525-78.936-113.683-1.013.122-1.994.31-2.97.566z" fill="#f60" stroke-width="10.194964" stroke-linecap="round" stroke-linejoin="round" overflow="visible"/><path d="M283.255 386.88c9.828 11.33 22.873 9.757 34.872-4.697 12.775 8.19 26.987 2.78 30.903-16.55M159.117 436l76.97-32.137m-94.946 7.726l89.678-17.047M132.022 373.7l92.813 11.695m181.79-27.116l67.502 2.765m-69.714-15.09l80.822-11.028m-82 2.99c6.805-3.15 81.95-37.767 81.95-37.767" fill="none" stroke-width="10.194964" stroke-linecap="round" stroke-linejoin="round" overflow="visible"/><path d="M351.468 252.726c-23.267 5.6-37.49 28.84-31.89 52.106l10.11 41.998 83.075-24.035-9.19-38.18c-5.6-23.266-28.84-37.49-52.105-31.89zM231.178 284.37c-23.267 5.6-37.49 28.84-31.89 52.107l10.77 39.146 83.334-17.365-10.108-41.998c-5.6-23.266-28.84-37.49-52.106-31.89z" fill="#fff" stroke-width="10.194964" stroke-linecap="round" stroke-linejoin="round" overflow="visible"/><path d="M258.29 321.985c4.564 18.983 1.14 36.084-7.65 38.196-8.788 2.114-19.61-11.562-24.174-30.545-4.563-18.983-1.138-36.083 7.65-38.196 5.896-1.418 13 4.322 18.464 14.915l-10.202 19.455zM378.96 291.366c4.563 18.983 1.423 36.015-7.014 38.043-8.437 2.027-18.975-11.717-23.538-30.7-4.563-18.983-1.423-36.015 7.014-38.043 6.037-1.45 13.43 5.233 18.866 17.056l-10.604 17.315z" stroke-width="10.195801" overflow="visible"/><path d="M331.417 125.715c-12.444 2.8-19.65 24.738-23.754 46.345 25.257.347 49.643 6.767 71.328 18.16-8.548-26.02-25.494-67.218-46.362-64.698-.414.05-.81.102-1.21.193zm-153.727 37.32c-.393.122-.77.263-1.154.426-21.058 8.946-12.824 60.63-7.332 86.103 13.18-22.177 31.75-41.14 54.39-54.78-14.574-17.933-32.943-35.763-45.904-31.748zm138.272 209.888c-2.114.51-15.59-13.677-14.975-15.762.616-2.083 19.64-6.662 21.138-5.086 1.497 1.576-4.05 20.34-6.163 20.85z" fill="#fff" fill-opacity=".671" stroke-width="10.194964" stroke-linecap="round" stroke-linejoin="round" overflow="visible"/></g></svg>