<?xml version="1.0" encoding="UTF-8" standalone="no"?>
<svg
   xmlns:sketch="http://www.bohemiancoding.com/sketch/ns"
   xmlns:dc="http://purl.org/dc/elements/1.1/"
   xmlns:cc="http://creativecommons.org/ns#"
   xmlns:rdf="http://www.w3.org/1999/02/22-rdf-syntax-ns#"
   xmlns:svg="http://www.w3.org/2000/svg"
   xmlns="http://www.w3.org/2000/svg"
   xmlns:xlink="http://www.w3.org/1999/xlink"
   xmlns:sodipodi="http://sodipodi.sourceforge.net/DTD/sodipodi-0.dtd"
   xmlns:inkscape="http://www.inkscape.org/namespaces/inkscape"
   width="128px"
   height="128px"
   viewBox="0 0 128 128"
   version="1.1"
   id="svg2"
   inkscape:version="0.48.2 r9819"
   sodipodi:docname="icon.svg">
  <metadata
     id="metadata16">
    <rdf:RDF>
      <cc:Work
         rdf:about="">
        <dc:format>image/svg+xml</dc:format>
        <dc:type
           rdf:resource="http://purl.org/dc/dcmitype/StillImage" />
      </cc:Work>
    </rdf:RDF>
  </metadata>
  <sodipodi:namedview
     pagecolor="#ffffff"
     bordercolor="#666666"
     borderopacity="1"
     objecttolerance="10"
     gridtolerance="10"
     guidetolerance="10"
     inkscape:pageopacity="0"
     inkscape:pageshadow="2"
     inkscape:window-width="1319"
     inkscape:window-height="748"
     id="namedview14"
     showgrid="false"
     inkscape:zoom="1.84375"
     inkscape:cx="-32.542373"
     inkscape:cy="64"
     inkscape:window-x="333"
     inkscape:window-y="422"
     inkscape:window-maximized="0"
     inkscape:current-layer="svg2" />
  <!-- Generator: Sketch 3.0.2 (7799) - http://www.bohemiancoding.com/sketch -->
  <title
     id="title4">remote</title>
  <description
     id="description6">Created with Sketch.</description>
  <defs
     id="defs8">
    <linearGradient
       id="linearGradient3947">
      <stop
         style="stop-color:#4e748b;stop-opacity:1;"
         offset="0"
         id="stop3949" />
      <stop
         style="stop-color:#393e3f;stop-opacity:1;"
         offset="1"
         id="stop3951" />
    </linearGradient>
    <linearGradient
       id="linearGradient3761">
      <stop
         style="stop-color:#4e748b;stop-opacity:1;"
         offset="0"
         id="stop3763" />
      <stop
         style="stop-color:#393e3f;stop-opacity:1;"
         offset="1"
         id="stop3765" />
    </linearGradient>
    <linearGradient
       inkscape:collect="always"
       href="#linearGradient3761"
       id="linearGradient3767"
       x1="129.66949"
       y1="65.8983"
       x2="129.66949"
       y2="188.59828"
       gradientUnits="userSpaceOnUse" />
    <linearGradient
       inkscape:collect="always"
       xlink:href="#linearGradient3947"
       id="linearGradient3953"
       x1="119.34522"
       y1="65.167862"
       x2="119.34522"
       y2="177.08508"
       gradientUnits="userSpaceOnUse" />
  </defs>
  <path
     sodipodi:type="arc"
     style="fill:url(#linearGradient3767);fill-opacity:1;fill-rule:evenodd;stroke:none"
     id="path2991"
     sodipodi:cx="129.35593"
     sodipodi:cy="128.27118"
     sodipodi:rx="63.18644"
     sodipodi:ry="63.18644"
     d="m 192.54237,128.27118 a 63.18644,63.18644 0 1 1 -126.372883,0 63.18644,63.18644 0 1 1 126.372883,0 z"
     transform="translate(-65.355927,-64.271179)" />
  <path
     sodipodi:type="arc"
     style="fill:url(#linearGradient3953);fill-rule:evenodd;stroke:none;stroke-width:1px;stroke-linecap:butt;stroke-linejoin:miter;stroke-opacity:1;fill-opacity:1.0"
     id="path3177"
     sodipodi:cx="119.05085"
     sodipodi:cy="121.22034"
     sodipodi:rx="57.220341"
     sodipodi:ry="57.220341"
     d="m 176.27119,121.22034 a 57.220341,57.220341 0 1 1 -114.440681,0 57.220341,57.220341 0 1 1 114.440681,0 z"
     transform="matrix(1.1127588,0,0,1.1127588,-68.474881,-70.888997)" />
  <g
     id="Page-1"
     sketch:type="MSPage"
     transform="matrix(0.9,0,0,0.9,6.4,6.4)"
     style="fill:none;stroke:none">
    <g
       id="remote"
       sketch:type="MSLayerGroup"
       transform="translate(6,6)">
      <circle
         id="Oval-2"
         sketch:type="MSShapeGroup"
         cx="58"
         cy="58"
         r="58"
         d="M 116,58 C 116,90.032515 90.032515,116 58,116 25.967485,116 0,90.032515 0,58 0,25.967485 25.967485,0 58,0 c 32.032515,0 58,25.967485 58,58 z"
         sodipodi:cx="58"
         sodipodi:cy="58"
         sodipodi:rx="58"
         sodipodi:ry="58"
         style="stroke:#bcc6c5;stroke-width:11;stroke-linecap:round;stroke-dasharray:20, 20" />
      <path
         d="M 63.511164,29.708539 C 76.949127,32.68233 87,44.667412 87,59 87,75.568543 73.568543,89 57,89 40.431457,89 27,75.568543 27,59 27,48.53788 32.355425,39.326587 40.474447,33.957947 L 51.213968,39.108873 39.005792,45.24676 38,54.649833 l 8.080586,5.878165 1.742593,3.36725 -1.901314,3.045294 -3.485187,5.248362 c 0,0 7.382213,6.460671 8.55508,6.460671 1.172867,0 9.934283,5.350425 9.934283,5.350425 L 67.105313,83.527855 68,77.909411 63.666908,67.782769 c 0,0 1.48112,-6.20095 0,-6.20095 -1.48112,0 -14.179661,0.842228 -14.179661,0.842228 l -0.847906,-2.627915 7.708008,-5.40602 c 0,0 -2.907106,3.10006 -0.791936,3.10006 2.115171,0 4.808421,0.896162 4.808421,-1.101949 0,-1.998111 -0.63405,-7.97834 -0.63405,-7.97834 l -2.590499,-2.887636 4.016485,-5.776102 -5.600357,-4.61192 c 0,0 10.123101,-3.336587 7.955751,-5.425686 l 0,0 z m 14.387257,21.04266 2.048665,4.258326 0.630807,8.825508 L 77.472897,70 82.682242,66.155914 83.052082,68.36979 86,61.343917 84.896297,52.211173 80.057623,46.308046 77,46 77.898421,50.751199 z M 30,67.155107 30.813595,70.736756 33.472137,75.459585 37,78 36.292713,75.094211 33.959951,71.303659 32.76485,67.357455 31.243968,66.113872 30.26834,60 30,67.155107 z"
         id="Oval-6"
         sketch:type="MSShapeGroup"
         inkscape:connector-curvature="0"
         style="fill:#bcc6c5" />
    </g>
  </g>
</svg>
